<svg width="12" height="10" viewBox="0 0 12 10" fill="none" xmlns="http://www.w3.org/2000/svg">
<path d="M1.2 10C0.87 10 0.5875 9.8776 0.3525 9.63281C0.1175 9.38802 0 9.09375 0 8.75V1.25C0 0.90625 0.1175 0.611979 0.3525 0.367188C0.5875 0.122396 0.87 0 1.2 0H10.8C11.13 0 11.4125 0.122396 11.6475 0.367188C11.8825 0.611979 12 0.90625 12 1.25V8.75C12 9.09375 11.8825 9.38802 11.6475 9.63281C11.4125 9.8776 11.13 10 10.8 10H1.2ZM6 5.625L1.2 2.5V8.75H10.8V2.5L6 5.625ZM6 4.375L10.8 1.25H1.2L6 4.375ZM1.2 2.5V1.25V8.75V2.5Z" fill="#8E8E8E"/>
</svg>
