<svg width="42" height="29" viewBox="0 0 42 29" fill="none" xmlns="http://www.w3.org/2000/svg">
<path d="M20.8356 23.2822C23.1578 23.2822 25.1317 22.4694 26.7572 20.8439C28.3828 19.2183 29.1956 17.2444 29.1956 14.9222C29.1956 12.6 28.3828 10.6261 26.7572 9.00056C25.1317 7.375 23.1578 6.56223 20.8356 6.56223C18.5134 6.56223 16.5395 7.375 14.9139 9.00056C13.2884 10.6261 12.4756 12.6 12.4756 14.9222C12.4756 17.2444 13.2884 19.2183 14.9139 20.8439C16.5395 22.4694 18.5134 23.2822 20.8356 23.2822ZM20.8356 19.9382C19.4422 19.9382 18.2579 19.4506 17.2826 18.4752C16.3072 17.4999 15.8196 16.3156 15.8196 14.9222C15.8196 13.5289 16.3072 12.3446 17.2826 11.3692C18.2579 10.3939 19.4422 9.90623 20.8356 9.90623C22.2289 9.90623 23.4132 10.3939 24.3886 11.3692C25.3639 12.3446 25.8516 13.5289 25.8516 14.9222C25.8516 16.3156 25.3639 17.4999 24.3886 18.4752C23.4132 19.4506 22.2289 19.9382 20.8356 19.9382ZM20.8356 28.8556C16.315 28.8556 12.1969 27.5938 8.48136 25.0703C4.7658 22.5469 2.07202 19.1642 0.400024 14.9222C2.07202 10.6803 4.7658 7.2976 8.48136 4.77411C12.1969 2.25063 16.315 0.988892 20.8356 0.988892C25.3562 0.988892 29.4742 2.25063 33.1898 4.77411C36.9054 7.2976 39.5991 10.6803 41.2711 14.9222C39.5991 19.1642 36.9054 22.5469 33.1898 25.0703C29.4742 27.5938 25.3562 28.8556 20.8356 28.8556ZM20.8356 25.14C24.3344 25.14 27.5468 24.2189 30.4728 22.3766C33.3988 20.5343 35.6359 18.0495 37.184 14.9222C35.6359 11.795 33.3988 9.31019 30.4728 7.46789C27.5468 5.6256 24.3344 4.70445 20.8356 4.70445C17.3368 4.70445 14.1244 5.6256 11.1984 7.46789C8.27236 9.31019 6.03528 11.795 4.48714 14.9222C6.03528 18.0495 8.27236 20.5343 11.1984 22.3766C14.1244 24.2189 17.3368 25.14 20.8356 25.14Z" fill="#8E8E8E"/>
</svg>
