<svg width="42" height="38" viewBox="0 0 42 38" fill="none" xmlns="http://www.w3.org/2000/svg">
<path d="M28.3103 20.297L25.6165 17.576C25.8951 16.1061 25.4771 14.7299 24.3625 13.4476C23.2478 12.1653 21.808 11.6649 20.0431 11.9464L17.3494 9.2254C17.8757 8.9752 18.4098 8.78754 18.9517 8.66244C19.4936 8.53734 20.0741 8.47478 20.6934 8.47478C23.0156 8.47478 24.9895 9.29577 26.615 10.9377C28.2406 12.5797 29.0534 14.5736 29.0534 16.9192C29.0534 17.5447 28.9914 18.1312 28.8676 18.6785C28.7437 19.2258 28.558 19.7653 28.3103 20.297ZM34.2551 26.2081L31.5614 23.581C32.738 22.674 33.783 21.681 34.6964 20.6019C35.6098 19.5229 36.3916 18.2954 37.0418 16.9192C35.4937 13.7604 33.2721 11.2505 30.377 9.3896C27.482 7.52869 24.2541 6.59824 20.6934 6.59824C19.7954 6.59824 18.913 6.66079 18.046 6.7859C17.1791 6.911 16.3276 7.09865 15.4916 7.34886L12.612 4.44022C13.8815 3.90853 15.182 3.50976 16.5134 3.24392C17.8448 2.97808 19.2381 2.84516 20.6934 2.84516C25.3688 2.84516 29.5333 4.15092 33.1869 6.76244C36.8406 9.37396 39.4879 12.7596 41.1289 16.9192C40.4168 18.7645 39.4801 20.4768 38.319 22.0563C37.1579 23.6357 35.8033 25.0196 34.2551 26.2081ZM35.184 37.7489L27.3814 29.9612C26.2977 30.3052 25.2062 30.5633 24.107 30.7353C23.0079 30.9073 21.87 30.9933 20.6934 30.9933C16.018 30.9933 11.8534 29.6875 8.19981 27.076C4.54618 24.4645 1.89885 21.0789 0.257812 16.9192C0.908035 15.2616 1.72855 13.7213 2.71937 12.2982C3.71018 10.8752 4.84033 9.60071 6.10981 8.47478L1.00092 3.22046L3.60181 0.593304L37.7849 35.1217L35.184 37.7489ZM8.7107 11.1019C7.81278 11.9151 6.99226 12.8065 6.24915 13.776C5.50603 14.7456 4.87129 15.7933 4.34492 16.9192C5.89307 20.0781 8.11466 22.588 11.0097 24.4489C13.9047 26.3098 17.1326 27.2402 20.6934 27.2402C21.3126 27.2402 21.9164 27.2011 22.5047 27.1229C23.093 27.0447 23.6968 26.9587 24.316 26.8649L22.644 25.0822C22.3034 25.176 21.9783 25.2464 21.6687 25.2933C21.3591 25.3402 21.034 25.3637 20.6934 25.3637C18.3711 25.3637 16.3973 24.5427 14.7717 22.9007C13.1461 21.2587 12.3334 19.2649 12.3334 16.9192C12.3334 16.5752 12.3566 16.2468 12.403 15.934C12.4495 15.6213 12.5191 15.2929 12.612 14.9489L8.7107 11.1019Z" fill="#8E8E8E"/>
</svg>
