<svg width="13" height="13" viewBox="0 0 13 13" fill="none" xmlns="http://www.w3.org/2000/svg">
<path d="M6.5 13L5.5575 12.079C4.46333 11.0045 3.55875 10.0777 2.84375 9.29837C2.12875 8.51907 1.56 7.81948 1.1375 7.19959C0.715 6.5797 0.419792 6.00999 0.251875 5.49046C0.0839583 4.97094 0 4.4396 0 3.89646C0 2.78656 0.34125 1.85967 1.02375 1.1158C1.70625 0.371935 2.55667 0 3.575 0C4.13833 0 4.67458 0.129882 5.18375 0.389646C5.69292 0.64941 6.13167 1.01544 6.5 1.48774C6.86833 1.01544 7.30708 0.64941 7.81625 0.389646C8.32542 0.129882 8.86167 0 9.425 0C10.4433 0 11.2937 0.371935 11.9762 1.1158C12.6587 1.85967 13 2.78656 13 3.89646C13 4.4396 12.916 4.97094 12.7481 5.49046C12.5802 6.00999 12.285 6.5797 11.8625 7.19959C11.44 7.81948 10.8712 8.51907 10.1562 9.29837C9.44125 10.0777 8.53667 11.0045 7.4425 12.079L6.5 13Z" fill="#CACACA"/>
</svg>
