<svg width="53" height="54" viewBox="0 0 53 54" fill="none" xmlns="http://www.w3.org/2000/svg">
<path d="M52 27C52 41.3771 40.5657 53 26.5 53C12.4343 53 1 41.3771 1 27C1 12.6229 12.4343 1 26.5 1C40.5657 1 52 12.6229 52 27Z" fill="#1F1F1F" stroke="url(#paint0_linear_402_3)" stroke-width="2"/>
<path d="M26.4801 25.6506C24.6109 25.6506 23.0976 25.0614 21.9403 23.883C20.783 22.7046 20.2044 21.1818 20.2044 19.3144C20.2044 17.4471 20.7811 15.9278 21.9345 14.7567C23.088 13.5856 24.5993 13 26.4685 13C28.3377 13 29.8596 13.5842 31.034 14.7526C32.2084 15.9209 32.7956 17.4477 32.7956 19.3328C32.7956 21.1879 32.2104 22.7046 31.0398 23.883C29.8693 25.0614 28.3494 25.6506 26.4801 25.6506ZM14 39V34.7416C14 33.6634 14.2777 32.7243 14.8331 31.9243C15.3886 31.1243 16.1084 30.5163 16.9927 30.1004C18.6472 29.3159 20.2496 28.7397 21.8 28.372C23.3504 28.0042 24.9048 27.8204 26.4632 27.8204C28.0683 27.8204 29.6345 28.0165 31.1617 28.4088C32.6889 28.801 34.2798 29.3649 35.9343 30.1004C36.8494 30.4842 37.5891 31.0798 38.1535 31.8873C38.7178 32.6949 39 33.6431 39 34.7321V39H14Z" fill="#2C2C2C"/>
<defs>
<linearGradient id="paint0_linear_402_3" x1="26.5" y1="0" x2="26.5" y2="54" gradientUnits="userSpaceOnUse">
<stop stop-color="#38F8D4"/>
<stop offset="1" stop-color="#43EA80"/>
</linearGradient>
</defs>
</svg>
