<svg width="13" height="13" viewBox="0 0 13 13" fill="none" xmlns="http://www.w3.org/2000/svg">
<path d="M6.5 6.5C5.60625 6.5 4.84115 6.18177 4.20469 5.54531C3.56823 4.90885 3.25 4.14375 3.25 3.25C3.25 2.35625 3.56823 1.59115 4.20469 0.954687C4.84115 0.318229 5.60625 0 6.5 0C7.39375 0 8.15885 0.318229 8.79531 0.954687C9.43177 1.59115 9.75 2.35625 9.75 3.25C9.75 4.14375 9.43177 4.90885 8.79531 5.54531C8.15885 6.18177 7.39375 6.5 6.5 6.5ZM0 13V10.725C0 10.2646 0.11849 9.84141 0.355469 9.45547C0.592448 9.06953 0.907292 8.775 1.3 8.57187C2.13958 8.15208 2.99271 7.83724 3.85937 7.62734C4.72604 7.41745 5.60625 7.3125 6.5 7.3125C7.39375 7.3125 8.27396 7.41745 9.14062 7.62734C10.0073 7.83724 10.8604 8.15208 11.7 8.57187C12.0927 8.775 12.4076 9.06953 12.6445 9.45547C12.8815 9.84141 13 10.2646 13 10.725V13H0Z" fill="#EEEEEE"/>
</svg>
