<svg width="13" height="11" viewBox="0 0 13 11" fill="none" xmlns="http://www.w3.org/2000/svg">
<path d="M5.86477 6.75278L9.21818 3.3L8.37614 2.42917L5.86477 5.02639L4.60909 3.72778L3.78182 4.58333L5.86477 6.75278ZM0 11V9.77778H13V11H0ZM1.77273 9.16667C1.44773 9.16667 1.16951 9.04699 0.938068 8.80764C0.706629 8.56829 0.590909 8.28056 0.590909 7.94444V1.22222C0.590909 0.886111 0.706629 0.59838 0.938068 0.359028C1.16951 0.119676 1.44773 0 1.77273 0H11.2273C11.5523 0 11.8305 0.119676 12.0619 0.359028C12.2934 0.59838 12.4091 0.886111 12.4091 1.22222V7.94444C12.4091 8.28056 12.2934 8.56829 12.0619 8.80764C11.8305 9.04699 11.5523 9.16667 11.2273 9.16667H1.77273ZM1.77273 7.94444H11.2273V1.22222H1.77273V7.94444Z" fill="#CACACA"/>
</svg>
