<svg width="13" height="10" viewBox="0 0 13 10" fill="none" xmlns="http://www.w3.org/2000/svg">
<path d="M0 10V8.25C0 7.89583 0.0861742 7.57031 0.258523 7.27344C0.430871 6.97656 0.659848 6.75 0.945455 6.59375C1.55606 6.27083 2.17652 6.02865 2.80682 5.86719C3.43712 5.70573 4.07727 5.625 4.72727 5.625C5.37727 5.625 6.01742 5.70573 6.64773 5.86719C7.27803 6.02865 7.89848 6.27083 8.50909 6.59375C8.7947 6.75 9.02367 6.97656 9.19602 7.27344C9.36837 7.57031 9.45455 7.89583 9.45455 8.25V10H0ZM10.6364 10V8.125C10.6364 7.66667 10.5157 7.22656 10.2744 6.80469C10.0331 6.38281 9.69091 6.02083 9.24773 5.71875C9.75 5.78125 10.2227 5.88802 10.6659 6.03906C11.1091 6.1901 11.5227 6.375 11.9068 6.59375C12.2614 6.80208 12.5322 7.03385 12.7193 7.28906C12.9064 7.54427 13 7.82292 13 8.125V10H10.6364ZM4.72727 5C4.07727 5 3.52083 4.75521 3.05795 4.26562C2.59508 3.77604 2.36364 3.1875 2.36364 2.5C2.36364 1.8125 2.59508 1.22396 3.05795 0.734375C3.52083 0.244792 4.07727 0 4.72727 0C5.37727 0 5.93371 0.244792 6.39659 0.734375C6.85947 1.22396 7.09091 1.8125 7.09091 2.5C7.09091 3.1875 6.85947 3.77604 6.39659 4.26562C5.93371 4.75521 5.37727 5 4.72727 5ZM10.6364 2.5C10.6364 3.1875 10.4049 3.77604 9.94205 4.26562C9.47917 4.75521 8.92273 5 8.27273 5C8.16439 5 8.02652 4.98698 7.85909 4.96094C7.69167 4.9349 7.55379 4.90625 7.44545 4.875C7.71136 4.54167 7.91572 4.17188 8.05852 3.76562C8.20133 3.35938 8.27273 2.9375 8.27273 2.5C8.27273 2.0625 8.20133 1.64062 8.05852 1.23438C7.91572 0.828125 7.71136 0.458333 7.44545 0.125C7.58333 0.0729167 7.72121 0.0390625 7.85909 0.0234375C7.99697 0.0078125 8.13485 0 8.27273 0C8.92273 0 9.47917 0.244792 9.94205 0.734375C10.4049 1.22396 10.6364 1.8125 10.6364 2.5Z" fill="#CACACA"/>
</svg>
