<svg width="12" height="12" viewBox="0 0 12 12" fill="none" xmlns="http://www.w3.org/2000/svg">
<path d="M11.2644 12L6.88053 7.61609C6.53154 7.90423 6.13019 8.12973 5.6765 8.2926C5.22281 8.45546 4.75346 8.53689 4.26845 8.53689C3.07547 8.53689 2.06581 8.12384 1.23949 7.29772C0.413163 6.4716 0 5.46221 0 4.26955C0 3.07687 0.413058 2.06711 1.23917 1.24026C2.06529 0.413419 3.07469 0 4.26736 0C5.46003 0 6.46979 0.413164 7.29664 1.23949C8.12349 2.06582 8.53691 3.07547 8.53691 4.26845C8.53691 4.76688 8.45324 5.24294 8.2859 5.69664C8.11855 6.15033 7.89528 6.54496 7.61609 6.88053L12 11.2644L11.2644 12ZM4.26845 7.48994C5.16778 7.48994 5.92953 7.17786 6.5537 6.5537C7.17786 5.92953 7.48994 5.16778 7.48994 4.26845C7.48994 3.36911 7.17786 2.60736 6.5537 1.9832C5.92953 1.35903 5.16778 1.04695 4.26845 1.04695C3.36911 1.04695 2.60736 1.35903 1.9832 1.9832C1.35904 2.60736 1.04697 3.36911 1.04697 4.26845C1.04697 5.16778 1.35904 5.92953 1.9832 6.5537C2.60736 7.17786 3.36911 7.48994 4.26845 7.48994Z" fill="#9D9D9D"/>
</svg>
