<svg width="18" height="18" viewBox="0 0 18 18" fill="none" xmlns="http://www.w3.org/2000/svg">
<path d="M6.21818 18L4.66364 15.2571L1.71818 14.5714L2.00455 11.4L0 9L2.00455 6.6L1.71818 3.42857L4.66364 2.74286L6.21818 0L9 1.24286L11.7818 0L13.3364 2.74286L16.2818 3.42857L15.9955 6.6L18 9L15.9955 11.4L16.2818 14.5714L13.3364 15.2571L11.7818 18L9 16.7571L6.21818 18ZM6.91364 15.8143L9 14.8714L11.1273 15.8143L12.2727 13.7571L14.5227 13.2L14.3182 10.8L15.8318 9L14.3182 7.15714L14.5227 4.75714L12.2727 4.24286L11.0864 2.18571L9 3.12857L6.87273 2.18571L5.72727 4.24286L3.47727 4.75714L3.68182 7.15714L2.16818 9L3.68182 10.8L3.47727 13.2429L5.72727 13.7571L6.91364 15.8143ZM8.14091 12.0429L12.7636 7.2L11.6182 5.95714L8.14091 9.6L6.38182 7.8L5.23636 9L8.14091 12.0429Z" fill="url(#paint0_linear_53_138)"/>
<defs>
<linearGradient id="paint0_linear_53_138" x1="9" y1="0" x2="9" y2="18" gradientUnits="userSpaceOnUse">
<stop stop-color="#38F8D4"/>
<stop offset="1" stop-color="#43EA80"/>
</linearGradient>
</defs>
</svg>
